<mxfile host="app.diagrams.net" modified="2021-07-15T17:39:41.820Z" agent="5.0 (Windows NT 10.0; Win64; x64) AppleWebKit/537.36 (KHTML, like Gecko) Chrome/90.0.4430.212 Safari/537.36" etag="LnD1u2UkU1-pfVbjw-c9" version="14.7.1" type="github">
  <diagram id="_VKC_Ptesaq74gxCTPKM" name="Page-1">
    <mxGraphModel dx="2290" dy="389" grid="0" gridSize="10" guides="1" tooltips="1" connect="1" arrows="1" fold="1" page="1" pageScale="1" pageWidth="827" pageHeight="1169" math="0" shadow="0">
      <root>
        <mxCell id="0" />
        <mxCell id="1" parent="0" />
        <mxCell id="IpltaGfH0LeB2DjWTrzb-53" style="edgeStyle=orthogonalEdgeStyle;rounded=0;orthogonalLoop=1;jettySize=auto;html=1;exitX=0.5;exitY=1;exitDx=0;exitDy=0;startArrow=none;startFill=0;entryX=0;entryY=0.5;entryDx=0;entryDy=0;" parent="1" edge="1">
          <mxGeometry relative="1" as="geometry">
            <mxPoint x="324.02999999999975" y="250" as="targetPoint" />
            <Array as="points">
              <mxPoint x="269" y="470" />
              <mxPoint x="200" y="470" />
              <mxPoint x="200" y="250" />
            </Array>
          </mxGeometry>
        </mxCell>
        <mxCell id="51kHfomaU9apBLXmp4Fj-2" style="edgeStyle=orthogonalEdgeStyle;orthogonalLoop=1;jettySize=auto;html=1;exitX=1;exitY=0.5;exitDx=0;exitDy=0;curved=1;entryX=0.5;entryY=0;entryDx=0;entryDy=0;" parent="1" source="51kHfomaU9apBLXmp4Fj-1" target="51kHfomaU9apBLXmp4Fj-3" edge="1">
          <mxGeometry relative="1" as="geometry">
            <mxPoint x="83" y="114" as="targetPoint" />
          </mxGeometry>
        </mxCell>
        <mxCell id="51kHfomaU9apBLXmp4Fj-1" value="index.js" style="rounded=1;whiteSpace=wrap;html=1;" parent="1" vertex="1">
          <mxGeometry x="-67" y="44" width="80" height="30" as="geometry" />
        </mxCell>
        <mxCell id="51kHfomaU9apBLXmp4Fj-4" style="edgeStyle=orthogonalEdgeStyle;curved=1;orthogonalLoop=1;jettySize=auto;html=1;exitX=0.5;exitY=1;exitDx=0;exitDy=0;entryX=0.5;entryY=0;entryDx=0;entryDy=0;" parent="1" source="51kHfomaU9apBLXmp4Fj-3" target="51kHfomaU9apBLXmp4Fj-5" edge="1">
          <mxGeometry relative="1" as="geometry">
            <mxPoint x="173" y="204" as="targetPoint" />
          </mxGeometry>
        </mxCell>
        <mxCell id="51kHfomaU9apBLXmp4Fj-3" value="App" style="rounded=1;whiteSpace=wrap;html=1;" parent="1" vertex="1">
          <mxGeometry x="103" y="114" width="110" height="40" as="geometry" />
        </mxCell>
        <mxCell id="51kHfomaU9apBLXmp4Fj-7" value="" style="edgeStyle=orthogonalEdgeStyle;curved=1;orthogonalLoop=1;jettySize=auto;html=1;exitX=0;exitY=1;exitDx=0;exitDy=0;" parent="1" source="51kHfomaU9apBLXmp4Fj-5" target="51kHfomaU9apBLXmp4Fj-6" edge="1">
          <mxGeometry relative="1" as="geometry" />
        </mxCell>
        <mxCell id="51kHfomaU9apBLXmp4Fj-8" style="edgeStyle=orthogonalEdgeStyle;curved=1;orthogonalLoop=1;jettySize=auto;html=1;exitX=1;exitY=1;exitDx=0;exitDy=0;entryX=0.5;entryY=0;entryDx=0;entryDy=0;" parent="1" source="51kHfomaU9apBLXmp4Fj-5" target="51kHfomaU9apBLXmp4Fj-9" edge="1">
          <mxGeometry relative="1" as="geometry">
            <mxPoint x="403" y="264" as="targetPoint" />
          </mxGeometry>
        </mxCell>
        <mxCell id="51kHfomaU9apBLXmp4Fj-5" value="BrowserRouter" style="rounded=1;whiteSpace=wrap;html=1;" parent="1" vertex="1">
          <mxGeometry x="133" y="184" width="100" height="40" as="geometry" />
        </mxCell>
        <mxCell id="51kHfomaU9apBLXmp4Fj-6" value="Header" style="whiteSpace=wrap;html=1;rounded=1;" parent="1" vertex="1">
          <mxGeometry x="-67" y="264" width="90" height="30" as="geometry" />
        </mxCell>
        <mxCell id="51kHfomaU9apBLXmp4Fj-10" style="edgeStyle=orthogonalEdgeStyle;curved=1;orthogonalLoop=1;jettySize=auto;html=1;exitX=0;exitY=1;exitDx=0;exitDy=0;" parent="1" source="51kHfomaU9apBLXmp4Fj-9" target="51kHfomaU9apBLXmp4Fj-11" edge="1">
          <mxGeometry relative="1" as="geometry">
            <mxPoint x="63" y="344" as="targetPoint" />
          </mxGeometry>
        </mxCell>
        <mxCell id="51kHfomaU9apBLXmp4Fj-12" style="edgeStyle=orthogonalEdgeStyle;curved=1;orthogonalLoop=1;jettySize=auto;html=1;exitX=1;exitY=1;exitDx=0;exitDy=0;" parent="1" source="51kHfomaU9apBLXmp4Fj-9" target="51kHfomaU9apBLXmp4Fj-13" edge="1">
          <mxGeometry relative="1" as="geometry">
            <mxPoint x="523" y="334" as="targetPoint" />
          </mxGeometry>
        </mxCell>
        <mxCell id="51kHfomaU9apBLXmp4Fj-9" value="Page" style="rounded=1;whiteSpace=wrap;html=1;" parent="1" vertex="1">
          <mxGeometry x="313" y="264" width="100" height="30" as="geometry" />
        </mxCell>
        <mxCell id="51kHfomaU9apBLXmp4Fj-14" style="edgeStyle=orthogonalEdgeStyle;curved=1;orthogonalLoop=1;jettySize=auto;html=1;exitX=0;exitY=1;exitDx=0;exitDy=0;" parent="1" source="51kHfomaU9apBLXmp4Fj-11" target="51kHfomaU9apBLXmp4Fj-15" edge="1">
          <mxGeometry relative="1" as="geometry">
            <mxPoint x="-137" y="414" as="targetPoint" />
            <Array as="points">
              <mxPoint x="3" y="390" />
              <mxPoint x="-122" y="390" />
            </Array>
          </mxGeometry>
        </mxCell>
        <mxCell id="51kHfomaU9apBLXmp4Fj-17" style="edgeStyle=orthogonalEdgeStyle;curved=1;orthogonalLoop=1;jettySize=auto;html=1;exitX=1;exitY=1;exitDx=0;exitDy=0;" parent="1" source="51kHfomaU9apBLXmp4Fj-11" target="51kHfomaU9apBLXmp4Fj-16" edge="1">
          <mxGeometry relative="1" as="geometry" />
        </mxCell>
        <mxCell id="51kHfomaU9apBLXmp4Fj-11" value="Page Content" style="rounded=1;whiteSpace=wrap;html=1;" parent="1" vertex="1">
          <mxGeometry x="3" y="344" width="110" height="30" as="geometry" />
        </mxCell>
        <mxCell id="51kHfomaU9apBLXmp4Fj-13" value="Page Navigation" style="rounded=1;whiteSpace=wrap;html=1;" parent="1" vertex="1">
          <mxGeometry x="473" y="334" width="100" height="30" as="geometry" />
        </mxCell>
        <mxCell id="51kHfomaU9apBLXmp4Fj-18" style="edgeStyle=orthogonalEdgeStyle;curved=1;orthogonalLoop=1;jettySize=auto;html=1;exitX=1;exitY=1;exitDx=0;exitDy=0;" parent="1" source="51kHfomaU9apBLXmp4Fj-15" target="51kHfomaU9apBLXmp4Fj-19" edge="1">
          <mxGeometry relative="1" as="geometry">
            <mxPoint x="-227" y="494" as="targetPoint" />
          </mxGeometry>
        </mxCell>
        <mxCell id="8CLgUiQXmsCnCaFRaA8V-19" style="edgeStyle=orthogonalEdgeStyle;curved=1;orthogonalLoop=1;jettySize=auto;html=1;exitX=0;exitY=1;exitDx=0;exitDy=0;entryX=0.5;entryY=0;entryDx=0;entryDy=0;" edge="1" parent="1" source="51kHfomaU9apBLXmp4Fj-15" target="8CLgUiQXmsCnCaFRaA8V-4">
          <mxGeometry relative="1" as="geometry" />
        </mxCell>
        <mxCell id="51kHfomaU9apBLXmp4Fj-15" value="Profile" style="rounded=1;whiteSpace=wrap;html=1;" parent="1" vertex="1">
          <mxGeometry x="-167" y="414" width="90" height="30" as="geometry" />
        </mxCell>
        <mxCell id="51kHfomaU9apBLXmp4Fj-16" value="Messages" style="rounded=1;whiteSpace=wrap;html=1;" parent="1" vertex="1">
          <mxGeometry x="188" y="414" width="110" height="30" as="geometry" />
        </mxCell>
        <mxCell id="51kHfomaU9apBLXmp4Fj-19" value="Avatar" style="rounded=1;whiteSpace=wrap;html=1;" parent="1" vertex="1">
          <mxGeometry x="-51" y="490" width="90" height="30" as="geometry" />
        </mxCell>
        <mxCell id="8CLgUiQXmsCnCaFRaA8V-1" style="edgeStyle=orthogonalEdgeStyle;curved=1;orthogonalLoop=1;jettySize=auto;html=1;exitX=0;exitY=1;exitDx=0;exitDy=0;" edge="1" parent="1" source="8CLgUiQXmsCnCaFRaA8V-4" target="8CLgUiQXmsCnCaFRaA8V-5">
          <mxGeometry relative="1" as="geometry">
            <mxPoint x="-801" y="582" as="targetPoint" />
          </mxGeometry>
        </mxCell>
        <mxCell id="8CLgUiQXmsCnCaFRaA8V-2" style="edgeStyle=orthogonalEdgeStyle;curved=1;orthogonalLoop=1;jettySize=auto;html=1;exitX=0.5;exitY=1;exitDx=0;exitDy=0;entryX=0.5;entryY=0;entryDx=0;entryDy=0;" edge="1" parent="1" source="8CLgUiQXmsCnCaFRaA8V-4" target="8CLgUiQXmsCnCaFRaA8V-7">
          <mxGeometry relative="1" as="geometry">
            <mxPoint x="-681" y="572" as="targetPoint" />
          </mxGeometry>
        </mxCell>
        <mxCell id="8CLgUiQXmsCnCaFRaA8V-3" style="edgeStyle=orthogonalEdgeStyle;curved=1;orthogonalLoop=1;jettySize=auto;html=1;exitX=1;exitY=1;exitDx=0;exitDy=0;" edge="1" parent="1" source="8CLgUiQXmsCnCaFRaA8V-4" target="8CLgUiQXmsCnCaFRaA8V-10">
          <mxGeometry relative="1" as="geometry">
            <mxPoint x="-511" y="582" as="targetPoint" />
          </mxGeometry>
        </mxCell>
        <mxCell id="8CLgUiQXmsCnCaFRaA8V-4" value="Profile Information" style="rounded=1;whiteSpace=wrap;html=1;" vertex="1" parent="1">
          <mxGeometry x="-429" y="492" width="105" height="30" as="geometry" />
        </mxCell>
        <mxCell id="8CLgUiQXmsCnCaFRaA8V-5" value="Name" style="rounded=1;whiteSpace=wrap;html=1;" vertex="1" parent="1">
          <mxGeometry x="-603" y="573.5" width="70" height="20" as="geometry" />
        </mxCell>
        <mxCell id="8CLgUiQXmsCnCaFRaA8V-6" style="edgeStyle=orthogonalEdgeStyle;curved=1;orthogonalLoop=1;jettySize=auto;html=1;exitX=0.5;exitY=1;exitDx=0;exitDy=0;" edge="1" parent="1" source="8CLgUiQXmsCnCaFRaA8V-7" target="8CLgUiQXmsCnCaFRaA8V-11">
          <mxGeometry relative="1" as="geometry">
            <mxPoint x="-611" y="652" as="targetPoint" />
          </mxGeometry>
        </mxCell>
        <mxCell id="8CLgUiQXmsCnCaFRaA8V-7" value="Description" style="rounded=1;whiteSpace=wrap;html=1;" vertex="1" parent="1">
          <mxGeometry x="-462" y="571" width="80" height="25" as="geometry" />
        </mxCell>
        <mxCell id="8CLgUiQXmsCnCaFRaA8V-8" style="edgeStyle=orthogonalEdgeStyle;curved=1;orthogonalLoop=1;jettySize=auto;html=1;exitX=0;exitY=1;exitDx=0;exitDy=0;" edge="1" parent="1" source="8CLgUiQXmsCnCaFRaA8V-10" target="8CLgUiQXmsCnCaFRaA8V-14">
          <mxGeometry relative="1" as="geometry">
            <mxPoint x="-411" y="652" as="targetPoint" />
          </mxGeometry>
        </mxCell>
        <mxCell id="8CLgUiQXmsCnCaFRaA8V-9" style="edgeStyle=orthogonalEdgeStyle;curved=1;orthogonalLoop=1;jettySize=auto;html=1;exitX=1;exitY=1;exitDx=0;exitDy=0;" edge="1" parent="1" source="8CLgUiQXmsCnCaFRaA8V-10" target="8CLgUiQXmsCnCaFRaA8V-15">
          <mxGeometry relative="1" as="geometry">
            <mxPoint x="-231" y="652" as="targetPoint" />
          </mxGeometry>
        </mxCell>
        <mxCell id="8CLgUiQXmsCnCaFRaA8V-10" value="Posts" style="rounded=1;whiteSpace=wrap;html=1;" vertex="1" parent="1">
          <mxGeometry x="-285" y="571" width="80" height="20" as="geometry" />
        </mxCell>
        <mxCell id="8CLgUiQXmsCnCaFRaA8V-11" value="" style="rounded=1;whiteSpace=wrap;html=1;" vertex="1" parent="1">
          <mxGeometry x="-464" y="659" width="70" height="30" as="geometry" />
        </mxCell>
        <mxCell id="8CLgUiQXmsCnCaFRaA8V-12" value="" style="rounded=1;whiteSpace=wrap;html=1;" vertex="1" parent="1">
          <mxGeometry x="-454" y="669" width="70" height="30" as="geometry" />
        </mxCell>
        <mxCell id="8CLgUiQXmsCnCaFRaA8V-13" value="Decs. Field" style="rounded=1;whiteSpace=wrap;html=1;" vertex="1" parent="1">
          <mxGeometry x="-448" y="679" width="70" height="30" as="geometry" />
        </mxCell>
        <mxCell id="8CLgUiQXmsCnCaFRaA8V-14" value="Add Post" style="rounded=1;whiteSpace=wrap;html=1;" vertex="1" parent="1">
          <mxGeometry x="-345" y="652" width="70" height="30" as="geometry" />
        </mxCell>
        <mxCell id="8CLgUiQXmsCnCaFRaA8V-15" value="" style="rounded=1;whiteSpace=wrap;html=1;" vertex="1" parent="1">
          <mxGeometry x="-197" y="652" width="70" height="30" as="geometry" />
        </mxCell>
        <mxCell id="8CLgUiQXmsCnCaFRaA8V-16" value="" style="rounded=1;whiteSpace=wrap;html=1;" vertex="1" parent="1">
          <mxGeometry x="-187" y="662" width="70" height="30" as="geometry" />
        </mxCell>
        <mxCell id="8CLgUiQXmsCnCaFRaA8V-17" value="Post" style="rounded=1;whiteSpace=wrap;html=1;" vertex="1" parent="1">
          <mxGeometry x="-178" y="672" width="70" height="30" as="geometry" />
        </mxCell>
      </root>
    </mxGraphModel>
  </diagram>
</mxfile>
